<svg xmlns="http://www.w3.org/2000/svg" viewBox="0 0 512 512" width="100%" height="100%">
  <defs>
    <linearGradient id="bgGrad" x1="0%" y1="0%" x2="0%" y2="100%">
      <stop offset="0%" stop-color="#E1F3FD" />
      <stop offset="100%" stop-color="#B6DAFB" />
    </linearGradient>
    <linearGradient id="arrowGrad" x1="0%" y1="0%" x2="0%" y2="100%">
      <stop offset="0%" stop-color="#2D79E6" />
      <stop offset="100%" stop-color="#174EA6" />
    </linearGradient>
    <filter id="dropShadow" x="-10%" y="-10%" width="130%" height="130%">
      <feDropShadow dx="0" dy="8" stdDeviation="6" flood-color="#1A3169" flood-opacity="0.15"/>
    </filter>
  </defs>

  <rect x="32" y="32" width="448" height="448" rx="96" fill="url(#bgGrad)" stroke="#1A3169" stroke-width="12" filter="url(#dropShadow)" />

  <path d="M 120,260 L 120,380 A 20,20 0 0 0 140,400 L 372,400 A 20,20 0 0 0 392,380 L 392,260" 
        fill="none" stroke="#1A3169" stroke-width="20" stroke-linecap="round" stroke-linejoin="round" />
  <path d="M 120,260 L 120,380 A 20,20 0 0 0 140,400 L 372,400 A 20,20 0 0 0 392,380 L 392,260" 
        fill="none" stroke="#75C8FF" stroke-width="8" stroke-linecap="round" stroke-linejoin="round" />

  <g filter="url(#dropShadow)">
    <path d="M 200,80 L 312,80 L 312,220 L 380,220 L 256,360 L 132,220 L 200,220 Z" 
          fill="url(#arrowGrad)" stroke="#1A3169" stroke-width="12" stroke-linejoin="round" />
  </g>

  <path d="M 230,150 L 282,150 
           M 242,150 L 242,210 A 12,12 0 0 1 230,222 
           M 270,150 L 270,215 A 8,8 0 0 0 278,223" 
        fill="none" stroke="#FFFFFF" stroke-width="10" stroke-linecap="round" stroke-linejoin="round" />
  <path d="M 226,150 Q 256,146 286,152" fill="none" stroke="#FFFFFF" stroke-width="10" stroke-linecap="round" />
</svg>
